<?xml version="1.0" encoding="utf-8"?>
<svg xmlns="http://www.w3.org/2000/svg" viewBox="0 0 100 100" width="400" height="400">
  <path fill="#ccac94" d="M68,73c-4.325-1.622-7.188-2.659-8.907-3.27c-0.286-0.102-0.54-0.191-0.764-0.27C57.528,69.178,57,68.425,57,67.576v-3.034c4.442-2.889,8-7.543,8-9.542c0-1,0-4,0-4c2,0,2.381-1.898,3-4c0.57-1.935,1-4,1-5c0-1.875-3.257-2.5-3.257-2.5h-0.121c-0.031-1.75-0.325-9.907-2.871-15c0,0-6.25-2-12.75-2s-12.75,2-12.75,2c-2.553,5.107-2.932,13.284-2.989,15.014C33.508,39.611,31,40.277,31,42c0,1,0.43,3.065,1,5c0.619,2.102,1,4,3,4c0,0,0,3,0,4c0,1.999,3.558,6.653,8,9.542v3.034c0,0.849-0.528,1.602-1.329,1.884c-0.224,0.079-0.478,0.169-0.764,0.27C39.188,70.341,36.325,71.378,32,73c-8,3-8,11-8,11h52C76,84,76,76,68,73z" />
  <path fill="#fff" d="M76,84H24c0,0,0-8,8-11c4.32-1.62,7.19-2.66,8.91-3.27c0.28-0.1,0.54-0.19,0.76-0.27c0.66-0.23,1.14-0.79,1.28-1.45C44.46,68.5,46.8,69,50,69c3.21,0,5.54-0.49,7.05-0.98c0.15,0.66,0.62,1.21,1.28,1.44c0.22,0.08,0.48,0.17,0.76,0.27c1.72,0.61,4.59,1.65,8.91,3.27C76,76,76,84,76,84z" />
  <path fill="#1f212b" d="M50,67c-2.106,0-4.526-0.85-7-2.458l0.545-0.838C45.855,65.206,48.088,66,50,66s4.145-0.794,6.455-2.296L57,64.542C54.526,66.15,52.106,67,50,67z" />
  <path fill="#1f212b" d="M77,84c0,0.55-0.45,1-1,1H24c-0.55,0-1-0.45-1-1c0-0.09,0.1-8.73,8.65-11.94c4.5-1.68,7.34-2.71,8.93-3.27l0.75-0.27c0.33-0.12,0.57-0.39,0.64-0.72c0.02-0.09,0.03-0.16,0.03-0.22v-2.51c-4.24-2.91-8-7.61-8-10.07v-3.13c-1.78-0.51-2.33-2.41-2.82-4.11l-0.14-0.48C30.56,45.66,30,43.3,30,42c0-1.05,0.78-1.79,1.84-2.32c0.14-0.07,0.29-0.14,0.44-0.2c0.86-0.37,1.85-0.61,2.71-0.76c-0.14,0.68-0.26,1.38-0.34,2.12c-0.61,0.15-1.17,0.31-1.6,0.5c-0.1,0.04-0.19,0.08-0.27,0.12c-0.44,0.19-0.72,0.39-0.78,0.55c0,0.84,0.4,2.83,0.96,4.71l0.14,0.49C33.73,49.37,34.05,50,35,50c0.55,0,1,0.45,1,1v4c0,1.49,3.24,5.9,7.55,8.7c0.28,0.19,0.45,0.5,0.45,0.84v3.04c0,0.21-0.02,0.42-0.07,0.64c-0.22,1.01-0.96,1.85-1.93,2.18l-0.75,0.27c-1.59,0.56-4.41,1.58-8.9,3.27c-5.64,2.11-6.95,6.96-7.26,9.06h49.83c-0.3-2.1-1.58-6.93-7.27-9.06c-4.49-1.69-7.31-2.71-8.89-3.27l-0.77-0.27c-0.96-0.33-1.68-1.14-1.91-2.16C56.02,68.01,56,67.79,56,67.58v-3.04c0-0.34,0.17-0.65,0.45-0.84C60.76,60.9,64,56.49,64,55v-4c0-0.55,0.45-1,1-1c0.95,0,1.27-0.63,1.9-2.79l0.14-0.49C67.6,44.84,68,42.85,68,42c-0.06-0.16-0.33-0.35-0.77-0.55c-0.08-0.04-0.17-0.08-0.27-0.12c-0.43-0.17-0.99-0.34-1.61-0.5c-0.08-0.74-0.2-1.43-0.34-2.11c0.86,0.15,1.85,0.39,2.71,0.76c0.15,0.06,0.3,0.13,0.44,0.2C69.22,40.21,70,40.95,70,42c0,1.3-0.56,3.66-1.04,5.28l-0.14,0.48c-0.49,1.7-1.04,3.6-2.82,4.11V55c0,2.46-3.76,7.16-8,10.07v2.51c0,0.07,0.01,0.15,0.03,0.23c0.07,0.33,0.31,0.59,0.63,0.71l0.77,0.27c1.58,0.56,4.42,1.59,8.92,3.27C76.9,75.27,77,83.91,77,84z" />
  <path fill="#1f212b" d="M50,70c-3.444,0-5.911-0.563-7.374-1.035c-0.263-0.085-0.407-0.366-0.322-0.629s0.367-0.407,0.629-0.322C44.327,68.464,46.686,69,50,69c0.517,0,1.003-0.017,1.475-0.04c0.311-0.031,0.511,0.198,0.524,0.474c0.015,0.275-0.198,0.511-0.474,0.524C51.038,69.983,50.534,70,50,70z" />
  <path fill="#1f212b" d="M53.499,69.787c-0.248,0-0.463-0.185-0.495-0.437c-0.035-0.274,0.159-0.524,0.433-0.56c0.345-0.044,0.668-0.094,0.98-0.146c0.27-0.045,0.53,0.137,0.576,0.41c0.046,0.272-0.138,0.53-0.41,0.576c-0.324,0.055-0.661,0.106-1.02,0.152C53.542,69.786,53.521,69.787,53.499,69.787z" />
  <path fill="#8f9eb6" d="M51.037,76c1.816-1.049,2.463-2.5,2.463-2.5l-3.5-4l-3.5,4c0,0,0.647,1.451,2.463,2.5h-0.13C46.5,78.55,46.5,83.5,46.5,83.5h7c0,0,0-4.95-2.333-7.5H51.037z" />
  <path fill="#1f212b" d="M54,84h-8v-0.5c0-0.21,0.028-5.175,2.464-7.838l0.148-0.162L50,76.375l1.388-0.875l0.148,0.162C53.972,78.325,54,83.29,54,83.5V84z M47.018,83h5.964c-0.07-1.252-0.41-4.557-2.041-6.5H49.06C47.426,78.447,47.088,81.749,47.018,83z" />
  <path fill="#1f212b" d="M50,77c-0.061,0-0.121-0.011-0.178-0.033c-2.789-1.062-3.741-3.177-3.78-3.267c-0.078-0.178-0.046-0.384,0.082-0.529l3.5-4c0.189-0.217,0.563-0.217,0.752,0l3.5,4c0.128,0.146,0.16,0.352,0.082,0.529c-0.039,0.09-0.991,2.205-3.78,3.267C50.121,76.989,50.061,77,50,77z M47.105,73.567c0.319,0.522,1.186,1.688,2.895,2.395c1.723-0.71,2.581-1.871,2.896-2.394L50,70.26L47.105,73.567z" />
  <path fill="#1f212b" d="M55.5,76c-0.13,0-0.258-0.051-0.354-0.146l-2-2c-0.195-0.195-0.195-0.512,0-0.707s0.512-0.195,0.707,0l1.765,1.765c4.468-1.887,5.398-4.542,5.407-4.569c0.089-0.262,0.372-0.402,0.633-0.316c0.262,0.088,0.403,0.371,0.316,0.633c-0.044,0.132-1.133,3.243-6.289,5.306C55.626,75.988,55.562,76,55.5,76z" />
  <path fill="#1f212b" d="M44.5,76c-0.063,0-0.126-0.012-0.186-0.036c-5.156-2.063-6.245-5.174-6.289-5.306c-0.087-0.262,0.055-0.545,0.316-0.633c0.262-0.086,0.544,0.053,0.632,0.314c0.013,0.036,0.986,2.702,5.408,4.571l1.765-1.765c0.195-0.195,0.512-0.195,0.707,0s0.195,0.512,0,0.707l-2,2C44.758,75.949,44.63,76,44.5,76z" />
  <path fill="#565fa1" d="M62.5,21.5c-0.5-1.25-3.5-6-13-6c-5.53,0-18,2.5-18,19c0,1.99,0.33,3.65,0.78,4.98c0.23,0.71,0.5,1.33,0.76,1.85c0,0,0,0.01,0.01,0.01c0.73,1.44,1.45,2.16,1.45,2.16s0-1.11,0.45-2.74c0.16-0.65,0.4-1.38,0.75-2.16c0.42-0.98,1.01-3.04,1.8-4.1c7.5,0,14-5,14-5v3c0,0,8.53-2.27,9-6c0,2.42,3.26,6.14,4.51,12.21v0.01c0.14,0.68,0.26,1.37,0.34,2.11v0.01c0.1,0.84,0.15,1.73,0.15,2.66c0,0,0.82-0.62,1.72-2.04c0,0,0-0.01,0.01-0.01c0.31-0.49,0.63-1.07,0.93-1.77c0.74-1.72,1.34-4.07,1.34-7.18C69.5,27.5,66.46,23.18,62.5,21.5z" />
  <path fill="#1f212b" d="M34.5,44c-0.13,0-0.258-0.051-0.354-0.146C34.018,43.725,31,40.637,31,34.5c0-18.559,15.411-19.499,18.5-19.499c9.858,0,12.847,5.032,13.376,6.117C67.146,23.023,70,27.571,70,32.5c0,8.156-4.028,11.271-4.2,11.4c-0.151,0.114-0.354,0.132-0.523,0.047C65.107,43.862,65,43.689,65,43.5c0-5.59-1.982-9.632-3.43-12.583c-0.503-1.026-0.945-1.929-1.231-2.741c-2.107,3.015-8.4,4.725-8.71,4.807c-0.152,0.042-0.312,0.008-0.434-0.086C51.072,32.802,51,32.655,51,32.5v-2.032c-1.959,1.319-7.226,4.444-13.245,4.53C35.032,38.787,35,43.453,35,43.5c0,0.202-0.122,0.385-0.309,0.462C34.63,43.988,34.564,44,34.5,44z M60.5,26c0.01,0,0.021,0,0.031,0.001C60.795,26.018,61,26.236,61,26.5c0,0.982,0.647,2.303,1.468,3.976c1.388,2.83,3.253,6.632,3.504,11.84C67.083,40.999,69,37.938,69,32.5c0-4.603-2.69-8.838-6.695-10.54c-0.123-0.052-0.22-0.151-0.269-0.274c-0.093-0.232-2.391-5.685-12.536-5.685c-2.922,0-17.5,0.892-17.5,18.499c0,3.786,1.247,6.346,2.093,7.646C34.3,40.34,34.965,37.047,37.1,34.2c0.095-0.126,0.243-0.2,0.4-0.2c7.235,0,13.632-4.848,13.695-4.896c0.151-0.115,0.357-0.136,0.525-0.052C51.892,29.136,52,29.31,52,29.5v2.336c2.597-0.791,7.684-2.846,8.004-5.398C60.035,26.187,60.249,26,60.5,26z" />
  <path fill="#1f212b" d="M50,55c-1.977,0-2.863-1.151-2.9-1.2c-0.166-0.221-0.121-0.534,0.1-0.7c0.22-0.164,0.531-0.12,0.697,0.097C47.93,53.237,48.555,54,50,54c1.454,0,2.078-0.771,2.104-0.805c0.169-0.215,0.482-0.257,0.699-0.09s0.262,0.476,0.097,0.694C52.863,53.849,51.977,55,50,55z" />
  <path fill="#1f212b" d="M50,60c-4.696,0-7.724-2.23-7.85-2.325c-0.166-0.124-0.199-0.358-0.075-0.524c0.124-0.165,0.358-0.2,0.525-0.076C42.629,57.096,45.565,59,50,59s7.371-1.903,7.4-1.925c0.167-0.124,0.401-0.089,0.525,0.076c0.124,0.166,0.09,0.4-0.075,0.524C57.724,57.77,54.696,60,50,60z" />
  <path fill="#1f212b" d="M43,40c-0.799,0-1.482,0.589-1.803,1.435C41.378,41.178,41.662,41,42,41c0.552,0,1,0.448,1,1c0,0.552-0.448,1-1,1c-0.502,0-0.899-0.376-0.971-0.857C41.015,42.26,41,42.377,41,42.5c0,1.381,0.895,2.5,2,2.5s2-1.119,2-2.5C45,41.119,44.105,40,43,40z" />
  <path fill="#1f212b" d="M57,40c-0.799,0-1.482,0.589-1.803,1.435C55.378,41.178,55.662,41,56,41c0.552,0,1,0.448,1,1c0,0.552-0.448,1-1,1c-0.502,0-0.899-0.376-0.971-0.857C55.015,42.26,55,42.377,55,42.5c0,1.381,0.895,2.5,2,2.5s2-1.119,2-2.5C59,41.119,58.105,40,57,40z" />
  <path fill="#1f212b" d="M60.314,37.751L61,36.441c-1.277-0.298-2.64-0.443-4-0.441c-1.73,0.003-3.456,0.247-5,0.723L52.865,38c1.268-0.417,2.7-0.622,4.135-0.625C58.128,37.372,59.259,37.491,60.314,37.751z" />
  <path fill="#1f212b" d="M43,37.375c1.435,0.003,2.867,0.208,4.135,0.625L48,36.723c-1.544-0.476-3.27-0.719-5-0.723c-1.36-0.003-2.723,0.143-4,0.441l0.686,1.31C40.741,37.491,41.872,37.372,43,37.375z" />
</svg>