<?xml version="1.0" encoding="utf-8"?>
<svg xmlns="http://www.w3.org/2000/svg" viewBox="0 0 100 100" width="400" height="400">
  <path fill="#fcba7f" d="M48.961,24.382L48.961,24.382c-0.825,0-1.5-0.675-1.5-1.5v-6c0-0.825,0.675-1.5,1.5-1.5h0c0.825,0,1.5,0.675,1.5,1.5v6C50.461,23.707,49.786,24.382,48.961,24.382z" />
  <path fill="#1f212b" d="M48.961,24.882c-1.103,0-2-0.897-2-2v-6c0-1.103,0.897-2,2-2s2,0.897,2,2v6C50.961,23.984,50.064,24.882,48.961,24.882z M48.961,15.882c-0.551,0-1,0.448-1,1v6c0,0.552,0.449,1,1,1s1-0.448,1-1v-6C49.961,16.33,49.512,15.882,48.961,15.882z" />
  <path fill="#fcba7f" d="M27.659,84.342L27.659,84.342c-0.625-0.625-0.625-1.647,0-2.272l12.269-12.269c0.625-0.625,1.647-0.625,2.272,0l0,0c0.625,0.625,0.625,1.647,0,2.272L29.931,84.342C29.306,84.967,28.284,84.967,27.659,84.342z" />
  <path fill="#1f212b" d="M28.795,85.311c-0.564,0-1.093-0.219-1.489-0.615l0,0l0,0l0,0c-0.396-0.396-0.615-0.925-0.615-1.489c0-0.563,0.218-1.093,0.615-1.489l12.269-12.269c0.793-0.793,2.186-0.793,2.979,0c0.396,0.396,0.615,0.925,0.615,1.489c0,0.563-0.218,1.093-0.615,1.489L30.284,84.695C29.888,85.092,29.359,85.311,28.795,85.311z M41.064,69.833c-0.297,0-0.574,0.114-0.782,0.322L28.013,82.424c-0.208,0.208-0.322,0.485-0.322,0.782s0.114,0.574,0.322,0.782l0,0c0.415,0.416,1.149,0.416,1.564,0L41.846,71.72c0.208-0.208,0.322-0.485,0.322-0.782s-0.114-0.574-0.322-0.782S41.361,69.833,41.064,69.833z" />
  <path fill="#fcba7f" d="M71.254,84.342L71.254,84.342c0.625-0.625,0.625-1.647,0-2.272L58.985,69.802c-0.625-0.625-1.647-0.625-2.272,0h0c-0.625,0.625-0.625,1.647,0,2.272l12.269,12.269C69.607,84.967,70.63,84.967,71.254,84.342z" />
  <path fill="#1f212b" d="M70.118,85.311c-0.563,0-1.093-0.219-1.489-0.615L56.36,72.427c-0.396-0.396-0.615-0.926-0.615-1.489c0-0.564,0.218-1.093,0.615-1.489c0.793-0.793,2.186-0.793,2.979,0l12.269,12.269c0.397,0.396,0.615,0.926,0.615,1.489c0,0.564-0.219,1.094-0.615,1.489C71.211,85.092,70.682,85.311,70.118,85.311z M57.85,69.832c-0.284,0-0.567,0.107-0.783,0.323c-0.208,0.208-0.322,0.485-0.322,0.782s0.114,0.574,0.322,0.782l12.269,12.269c0.417,0.417,1.149,0.415,1.564,0l0,0c0.208-0.208,0.322-0.485,0.322-0.782s-0.114-0.574-0.322-0.782L58.632,70.155C58.416,69.94,58.133,69.832,57.85,69.832z" />
  <path fill="#f37e98" d="M71.794,31.794l-4.026-4.003c-4.989-4.075-11.363-6.519-18.307-6.519c-15.994,0-28.96,12.966-28.96,28.96c0,15.994,12.966,28.96,28.96,28.96s28.96-12.966,28.96-28.96C78.42,43.227,75.933,36.803,71.794,31.794z M49.834,68.763c-10.217,0-18.5-8.283-18.5-18.5c0-1.358,0.146-2.682,0.424-3.957l2.707-6.344c3.321-4.945,8.965-8.199,15.369-8.199c10.217,0,18.5,8.283,18.5,18.5S60.052,68.763,49.834,68.763z" />
  <path fill="#1f212b" d="M49.587,79.811c-16.52,0-29.96-13.44-29.96-29.96s13.44-29.959,29.96-29.959c6.889,0,13.615,2.396,18.94,6.744c0.428,0.35,0.491,0.979,0.142,1.407c-0.349,0.429-0.979,0.49-1.407,0.142c-4.968-4.058-11.245-6.293-17.674-6.293c-15.417,0-27.96,12.542-27.96,27.959s12.543,27.96,27.96,27.96s27.959-12.543,27.959-27.96c0-6.487-2.272-12.809-6.397-17.801c-0.352-0.426-0.292-1.056,0.134-1.407c0.425-0.353,1.055-0.292,1.408,0.134c4.421,5.349,6.855,12.123,6.855,19.074C79.547,66.37,66.107,79.811,49.587,79.811z" />
  <path fill="#1f212b" d="M32.869,43.289c-0.064,0-0.129-0.012-0.191-0.038c-0.255-0.105-0.376-0.398-0.271-0.653c0.118-0.283,0.242-0.563,0.373-0.84c0.118-0.248,0.416-0.354,0.666-0.237c0.25,0.119,0.356,0.417,0.237,0.667c-0.124,0.261-0.241,0.525-0.352,0.793C33.251,43.173,33.065,43.289,32.869,43.289z" />
  <g>
    <path fill="#fefdef" d="M34.591,39.581c3.321-4.945,8.965-8.199,15.369-8.199c10.217,0,18.5,8.283,18.5,18.5s-8.283,18.5-18.5,18.5s-18.5-8.283-18.5-18.5c0-1.358,0.146-2.682,0.424-3.957" />
    <path fill="#1f212b" d="M49.961,68.882c-10.477,0-19-8.523-19-19c0-1.37,0.146-2.737,0.436-4.063c0.059-0.271,0.327-0.439,0.595-0.382c0.27,0.059,0.441,0.325,0.382,0.595c-0.274,1.257-0.413,2.552-0.413,3.851c0,9.925,8.075,18,18,18s18-8.075,18-18s-8.075-18-18-18c-6.009,0-11.6,2.982-14.954,7.978c-0.154,0.23-0.465,0.291-0.694,0.137s-0.29-0.465-0.136-0.693c3.541-5.273,9.441-8.421,15.784-8.421c10.477,0,19,8.523,19,19S60.437,68.882,49.961,68.882z" />
  </g>
  <g>
    <path fill="#f37e98" d="M49.461 41.382A8 8 0 1 0 49.461 57.382A8 8 0 1 0 49.461 41.382Z" />
    <path fill="#1f212b" d="M49.461,57.882c-4.687,0-8.5-3.813-8.5-8.5s3.813-8.5,8.5-8.5s8.5,3.813,8.5,8.5S54.148,57.882,49.461,57.882z M49.461,41.882c-4.136,0-7.5,3.364-7.5,7.5s3.364,7.5,7.5,7.5s7.5-3.364,7.5-7.5S53.596,41.882,49.461,41.882z" />
  </g>
  <g>
    <path fill="#fcba7f" d="M79.342,21.443l-1.346-1.346L49.028,49.063l0.016,0.016c-0.175,0.17-0.285,0.405-0.285,0.667c0,0.515,0.418,0.933,0.933,0.933c0.263,0,0.498-0.11,0.667-0.285l0.016,0.016L79.342,21.443z" />
    <path fill="#1f212b" d="M49.692,51.179c-0.79,0-1.433-0.643-1.433-1.433c0-0.332,0.113-0.646,0.322-0.901c0.022-0.049,0.054-0.095,0.094-0.135l28.967-28.967c0.195-0.195,0.512-0.195,0.707,0l1.346,1.346c0.094,0.094,0.146,0.221,0.146,0.354s-0.053,0.26-0.146,0.354L50.728,50.763c-0.042,0.043-0.091,0.076-0.143,0.1C50.332,51.067,50.02,51.179,49.692,51.179z M49.478,49.321c-0.022,0.043-0.051,0.083-0.086,0.117c-0.086,0.083-0.133,0.192-0.133,0.308c0,0.354,0.486,0.564,0.741,0.3c0.037-0.038,0.079-0.07,0.125-0.094l28.509-28.51l-0.639-0.639L49.478,49.321z" />
  </g>
  <g>
    <path fill="#f69272" d="M78.385 27.442L73.622 27.162 79.365 21.42 84.127 21.7z" />
    <path fill="#1f212b" d="M78.384,27.942c-0.01,0-0.02,0-0.029-0.001l-4.762-0.28c-0.197-0.012-0.368-0.138-0.438-0.321c-0.07-0.185-0.025-0.392,0.114-0.531l5.743-5.742c0.102-0.101,0.245-0.159,0.383-0.146l4.762,0.279c0.197,0.012,0.368,0.138,0.438,0.321s0.025,0.392-0.114,0.531l-5.743,5.743C78.644,27.89,78.517,27.942,78.384,27.942z M74.763,26.729l3.426,0.201l4.796-4.797l-3.426-0.2L74.763,26.729z" />
    <g>
      <path fill="#f69272" d="M71.996 21.053L72.276 25.816 78.018 20.073 77.738 15.311z" />
      <path fill="#1f212b" d="M72.276,26.315c-0.06,0-0.12-0.011-0.178-0.032c-0.184-0.07-0.31-0.242-0.321-0.438l-0.28-4.762c-0.008-0.143,0.044-0.282,0.146-0.383l5.743-5.743c0.139-0.14,0.347-0.182,0.531-0.114c0.184,0.07,0.31,0.242,0.321,0.438l0.28,4.763c0.008,0.143-0.044,0.282-0.146,0.383l-5.743,5.742C72.533,26.265,72.406,26.315,72.276,26.315z M72.508,21.248l0.201,3.427l4.797-4.796l-0.201-3.428L72.508,21.248z" />
    </g>
  </g>
</svg>