<?xml version="1.0" encoding="utf-8"?>
<svg xmlns="http://www.w3.org/2000/svg" viewBox="0 0 100 100" width="400" height="400">
  <path fill="#60be92" d="M73 63A11 11 0 1 0 73 85A11 11 0 1 0 73 63Z" />
  <path fill="#f9e65c" d="M27 16A11 11 0 1 0 27 38A11 11 0 1 0 27 16Z" />
  <path fill="#39c2d8" d="M16 64H35V83H16z" />
  <path fill="#f15b6c" d="M63.515 19.515H80.486V36.486000000000004H63.515z" transform="rotate(-45.001 72 28.001)" />
  <path fill="#b3b2c3" d="M52.067 22.944c-.586-.586-1.536-.586-2.121 0-.586.586-.586 1.536 0 2.121L51.38 26.5H43c-.828 0-1.5.672-1.5 1.5s.672 1.5 1.5 1.5h8.36l-1.42 1.42c-.586.586-.586 1.536 0 2.121.586.586 1.536.586 2.121 0l4.003-4.003c.579-.579.579-1.518 0-2.097L52.067 22.944zM19.944 48.925c-.586.586-.586 1.536 0 2.121.586.586 1.536.586 2.121 0l1.434-1.434v8.38c0 .828.672 1.5 1.5 1.5s1.5-.672 1.5-1.5v-8.36l1.42 1.42c.586.586 1.536.586 2.121 0 .586-.586.586-1.536 0-2.121l-4.003-4.003c-.579-.579-1.518-.579-2.097 0L19.944 48.925zM66.944 54.061c-.586-.586-.586-1.536 0-2.121.586-.586 1.536-.586 2.121 0l1.434 1.434v-8.38c0-.828.672-1.5 1.5-1.5s1.5.672 1.5 1.5v8.36l1.42-1.42c.586-.586 1.536-.586 2.121 0 .586.586.586 1.536 0 2.121l-4.003 4.003c-.579.579-1.518.579-2.097 0L66.944 54.061z" />
  <path fill="#1f212b" d="M72 35c-.128 0-.256-.049-.354-.146l-5-5c-.195-.195-.195-.512 0-.707s.512-.195.707 0L72 33.793 77.793 28l-.146-.146c-.195-.195-.195-.512 0-.707s.512-.195.707 0l.5.5c.195.195.195.512 0 .707l-6.5 6.5C72.256 34.951 72.128 35 72 35zM67 27c-.128 0-.256-.049-.354-.146-.195-.195-.195-.512 0-.707l1-1c.195-.195.512-.195.707 0s.195.512 0 .707l-1 1C67.256 26.951 67.128 27 67 27zM76 26c-.128 0-.256-.049-.354-.146L72 22.207l-1.646 1.646c-.195.195-.512.195-.707 0s-.195-.512 0-.707l2-2c.195-.195.512-.195.707 0l4 4c.195.195.195.512 0 .707C76.256 25.951 76.128 26 76 26zM73 86c-6.617 0-12-5.383-12-12s5.383-12 12-12 12 5.383 12 12S79.617 86 73 86zM73 64c-5.514 0-10 4.486-10 10s4.486 10 10 10 10-4.486 10-10S78.514 64 73 64zM27 39c-6.617 0-12-5.383-12-12s5.383-12 12-12 12 5.383 12 12S33.617 39 27 39zM27 17c-5.514 0-10 4.486-10 10s4.486 10 10 10 10-4.486 10-10S32.514 17 27 17z" />
  <path fill="#1f212b" d="M25.5 33.826c-.038 0-.077-.004-.116-.014C22.214 33.063 20 30.262 20 27c0-3.859 3.14-7 7-7 .543 0 1.087.062 1.615.188.269.062.435.332.372.601-.063.27-.333.439-.602.372C27.933 21.054 27.467 21 27 21c-3.309 0-6 2.691-6 6 0 2.796 1.898 5.197 4.615 5.84.269.063.435.333.372.602C25.932 33.671 25.727 33.826 25.5 33.826zM32.5 24.034c-.166 0-.328-.082-.423-.233-.475-.753-1.125-1.402-1.878-1.878-.234-.147-.304-.456-.156-.689s.458-.304.689-.156c.879.555 1.637 1.312 2.191 2.19.147.233.078.542-.156.689C32.684 24.01 32.592 24.034 32.5 24.034zM33.48 27c-.259 0-.478-.2-.498-.462-.023-.312-.072-.622-.143-.923-.063-.269.103-.538.372-.602.271-.067.538.103.602.371.083.352.139.715.167 1.077.021.275-.186.516-.461.537C33.506 27 33.493 27 33.48 27zM73 81c-.544 0-1.087-.062-1.614-.188-.27-.062-.436-.332-.372-.601.062-.269.33-.441.601-.372C72.067 79.946 72.533 80 73 80c3.309 0 6-2.691 6-6 0-2.796-1.897-5.197-4.615-5.84-.269-.063-.435-.333-.371-.602.062-.269.329-.438.602-.371C77.785 67.937 80 70.738 80 74 80 77.859 76.859 81 73 81zM69.534 80c-.092 0-.184-.024-.267-.077-.879-.555-1.636-1.312-2.19-2.19C66.93 77.499 67 77.19 67.233 77.043c.232-.147.541-.079.689.156.476.753 1.125 1.402 1.878 1.878.233.147.304.456.156.689C69.862 79.918 69.699 80 69.534 80zM66.674 76c-.228 0-.433-.155-.486-.386-.083-.354-.14-.715-.167-1.076-.021-.275.185-.516.46-.536.259-.045.516.184.536.46.024.31.072.62.144.924.063.269-.104.538-.372.601C66.75 75.996 66.711 76 66.674 76zM35 84H16c-.552 0-1-.447-1-1V64c0-.553.448-1 1-1h19c.552 0 1 .447 1 1v19C36 83.553 35.552 84 35 84zM17 82h17V65H17V82z" />
  <path fill="#1f212b" d="M31.5 73c-.276 0-.5-.224-.5-.5v-1c0-.276.224-.5.5-.5s.5.224.5.5v1C32 72.776 31.776 73 31.5 73zM31.5 80h-10c-.276 0-.5-.224-.5-.5s.224-.5.5-.5H31v-3.5c0-.276.224-.5.5-.5s.5.224.5.5v4C32 79.776 31.776 80 31.5 80zM19.5 77c-.276 0-.5-.224-.5-.5v-9c0-.276.224-.5.5-.5h12c.276 0 .5.224.5.5v2c0 .276-.224.5-.5.5S31 69.776 31 69.5V68H20v8.5C20 76.776 19.776 77 19.5 77zM72 41c-.256 0-.512-.098-.707-.293l-12-12c-.391-.391-.391-1.023 0-1.414l12-12c.391-.391 1.023-.391 1.414 0l12 12c.391.391.391 1.023 0 1.414l-12 12C72.512 40.902 72.256 41 72 41zM61.414 28L72 38.586 82.586 28 72 17.414 61.414 28zM51 33.98c-.512 0-1.024-.195-1.414-.585C49.208 33.018 49 32.516 49 31.981c0-.535.208-1.037.586-1.414L50.153 30H43c-1.103 0-2-.897-2-2s.897-2 2-2h7.173l-.581-.581c-.779-.779-.779-2.049 0-2.828.779-.778 2.048-.78 2.829 0l3.997 3.997c.375.374.581.872.581 1.401 0 .53-.206 1.028-.581 1.402l-4.004 4.004C52.024 33.785 51.512 33.98 51 33.98zM43 27c-.551 0-1 .448-1 1s.449 1 1 1h8.359c.202 0 .385.122.462.309s.035.401-.108.545l-1.42 1.421C50.104 31.463 50 31.714 50 31.981c0 .267.104.518.293.707.39.391 1.023.391 1.414 0l4.004-4.004c.383-.383.383-1.007 0-1.39l-3.997-3.997c-.392-.391-1.025-.391-1.415 0-.39.39-.39 1.024 0 1.414l1.435 1.435c.143.143.186.358.108.545S51.583 27 51.381 27H43zM25 59.992c-1.103 0-2-.897-2-2v-7.174l-.581.581c-.755.756-2.072.756-2.828 0-.378-.377-.586-.879-.586-1.414 0-.534.208-1.036.586-1.414l3.997-3.997c.748-.75 2.054-.751 2.804 0l4.004 4.004c.779.779.779 2.049 0 2.828-.756.756-2.073.756-2.829 0L27 50.84v7.152C27 59.095 26.103 59.992 25 59.992zM23.5 49.112c.064 0 .129.013.191.038C23.878 49.228 24 49.41 24 49.612v8.38c0 .552.449 1 1 1s1-.448 1-1v-8.359c0-.202.122-.385.309-.462.188-.076.401-.034.545.108l1.42 1.42c.377.376 1.036.378 1.415 0 .39-.39.39-1.024 0-1.414l-4.004-4.004c-.384-.382-1.006-.382-1.39 0l-3.997 3.997 0 0c-.189.189-.293.44-.293.707 0 .268.104.519.292.707.379.377 1.037.377 1.415 0l1.435-1.434C23.242 49.163 23.37 49.112 23.5 49.112zM71.989 58.992c-.529 0-1.027-.206-1.401-.581l-3.997-3.996 0 0c-.78-.78-.78-2.049 0-2.829.779-.779 2.049-.779 2.828 0L70 52.167v-7.173c0-1.103.897-2 2-2s2 .897 2 2v7.153l.567-.567c.753-.756 2.071-.756 2.828 0 .378.377.586.879.586 1.414 0 .534-.208 1.036-.586 1.414l-4.004 4.003C73.018 58.786 72.52 58.992 71.989 58.992zM67.298 53.708l3.997 3.996c.382.382 1.006.384 1.39 0l4.004-4.003c.188-.189.293-.44.293-.707 0-.268-.104-.519-.293-.707-.38-.378-1.038-.378-1.414 0l-1.421 1.42c-.144.144-.359.186-.545.108C73.122 53.738 73 53.556 73 53.354v-8.359c0-.552-.448-1-1-1s-1 .448-1 1v8.38c0 .202-.122.385-.309.462-.185.078-.401.035-.545-.108l-1.435-1.435c-.391-.389-1.025-.389-1.414 0C66.908 52.684 66.908 53.317 67.298 53.708L67.298 53.708z" />
</svg>