<?xml version="1.0" encoding="utf-8"?>
<svg xmlns="http://www.w3.org/2000/svg" viewBox="0 0 100 100" width="400" height="400">
  <rect width="6.927" height="9.4" x="69.163" y="29.659" fill="#ceccbe" transform="rotate(45.001 72.627 34.359)" />
  <path fill="#1f212b" d="M71.751,40.839l-5.605-5.604L73.5,27.88l5.605,5.604L71.751,40.839z M67.561,35.234l4.191,4.19l5.94-5.94l-4.191-4.19L67.561,35.234z" />
  <path fill="#e3e3e4" d="M84.7,29.182l-6.897-6.897c-0.381-0.381-0.998-0.381-1.379,0l-4.138,4.138c-0.381,0.381-0.381,0.998,0,1.379l6.897,6.897c0.381,0.381,0.998,0.381,1.379,0l4.138-4.138C85.08,30.181,85.08,29.563,84.7,29.182z" />
  <path fill="#1f212b" d="M79.872,35.985c-0.527,0-1.023-0.206-1.396-0.579l-6.896-6.896C71.206,28.137,71,27.641,71,27.113s0.206-1.023,0.579-1.396l4.138-4.138c0.744-0.746,2.048-0.747,2.794,0.001l6.896,6.896c0.373,0.373,0.579,0.869,0.579,1.396s-0.206,1.023-0.579,1.396l-4.138,4.138C80.896,35.779,80.399,35.985,79.872,35.985z M77.096,22.993l-4.103,4.138l6.896,6.861l4.086-4.12L77.096,22.993z" />
  <rect width="10" height="9.5" x="44.5" y="19.5" fill="#ceccbe" />
  <path fill="#1f212b" d="M55,29.5H44V19h11V29.5z M45,28.5h9V20h-9V28.5z" />
  <path fill="#e3e3e4" d="M58,20H41c-0.552,0-1-0.448-1-1v-8c0-0.552,0.448-1,1-1h17c0.552,0,1,0.448,1,1v8C59,19.552,58.552,20,58,20z" />
  <path fill="#1f212b" d="M58,21H41c-1.103,0-2-0.897-2-2v-8c0-1.103,0.897-2,2-2h17c1.103,0,2,0.897,2,2v8C60,20.103,59.103,21,58,21z M41,11v8h17.001L58,11H41z" />
  <circle cx="49.5" cy="57.5" r="32.5" fill="#78a2d2" />
  <path fill="#1f212b" d="M49.5,91C31.028,91,16,75.972,16,57.5S31.028,24,49.5,24S83,39.028,83,57.5S67.972,91,49.5,91z M49.5,26C32.131,26,18,40.131,18,57.5S32.131,89,49.5,89S81,74.869,81,57.5S66.869,26,49.5,26z" />
  <circle cx="49.5" cy="57.5" r="26.5" fill="#fefdef" />
  <path fill="#1f212b" d="M49.5,34c-0.276,0-0.5-0.224-0.5-0.5v-3c0-0.276,0.224-0.5,0.5-0.5s0.5,0.224,0.5,0.5v3C50,33.776,49.776,34,49.5,34z" />
  <path fill="#1f212b" d="M32.529,41.029c-0.128,0-0.256-0.049-0.354-0.146l-2.121-2.121c-0.195-0.195-0.195-0.512,0-0.707s0.512-0.195,0.707,0l2.121,2.121c0.195,0.195,0.195,0.512,0,0.707C32.785,40.98,32.657,41.029,32.529,41.029z" />
  <path fill="#1f212b" d="M25.5,58h-3c-0.276,0-0.5-0.224-0.5-0.5s0.224-0.5,0.5-0.5h3c0.276,0,0.5,0.224,0.5,0.5S25.776,58,25.5,58z" />
  <path fill="#1f212b" d="M30.408,77.092c-0.128,0-0.256-0.049-0.354-0.146c-0.195-0.195-0.195-0.512,0-0.707l2.121-2.121c0.195-0.195,0.512-0.195,0.707,0s0.195,0.512,0,0.707l-2.121,2.121C30.664,77.043,30.536,77.092,30.408,77.092z" />
  <path fill="#1f212b" d="M49.5,85c-0.276,0-0.5-0.224-0.5-0.5v-3c0-0.276,0.224-0.5,0.5-0.5s0.5,0.224,0.5,0.5v3C50,84.776,49.776,85,49.5,85z" />
  <path fill="#1f212b" d="M68.592,77.092c-0.128,0-0.256-0.049-0.354-0.146l-2.121-2.121c-0.195-0.195-0.195-0.512,0-0.707s0.512-0.195,0.707,0l2.121,2.121c0.195,0.195,0.195,0.512,0,0.707C68.848,77.043,68.72,77.092,68.592,77.092z" />
  <path fill="#1f212b" d="M76.5,58h-3c-0.276,0-0.5-0.224-0.5-0.5s0.224-0.5,0.5-0.5h3c0.276,0,0.5,0.224,0.5,0.5S76.776,58,76.5,58z" />
  <path fill="#1f212b" d="M66.471,41.029c-0.128,0-0.256-0.049-0.354-0.146c-0.195-0.195-0.195-0.512,0-0.707l2.121-2.121c0.195-0.195,0.512-0.195,0.707,0s0.195,0.512,0,0.707l-2.121,2.121C66.727,40.98,66.599,41.029,66.471,41.029z" />
  <path fill="#f37e98" d="M59.768,64.232c-0.372-0.372-1.628-1.628-2-2c-0.725-0.725-1.782-0.909-2.679-0.558c-1.525-1.525-17.551-17.552-17.881-17.881c-0.391-0.391-1.024-0.391-1.414,0c-0.391,0.391-0.391,1.024,0,1.414c0.33,0.33,16.357,16.357,17.881,17.881c-0.351,0.897-0.167,1.955,0.558,2.679c0.372,0.372,1.628,1.628,2,2c0.976,0.976,2.559,0.976,3.536,0S60.744,65.209,59.768,64.232z" />
  <path fill="#1f212b" d="M58,69c-0.801,0-1.555-0.313-2.121-0.879l-2-2c-0.762-0.762-1.049-1.868-0.774-2.896L35.439,45.561c-0.585-0.585-0.585-1.536,0-2.121c0.585-0.584,1.536-0.584,2.121,0l17.665,17.665c1.026-0.278,2.133,0.013,2.896,0.774l2,2c1.169,1.17,1.169,3.073,0,4.242C59.555,68.688,58.801,69,58,69z M36.5,44c-0.128,0-0.256,0.049-0.354,0.146c-0.195,0.195-0.195,0.512,0,0.707l17.881,17.882c0.141,0.141,0.185,0.351,0.112,0.535c-0.29,0.741-0.115,1.583,0.446,2.144l2,2c0.756,0.756,2.072,0.756,2.828,0c0.78-0.779,0.78-2.049,0-2.828h0l-2-2c-0.56-0.561-1.403-0.737-2.143-0.445c-0.185,0.07-0.396,0.029-0.536-0.112L36.854,44.146C36.756,44.049,36.628,44,36.5,44z" />
  <circle cx="49.5" cy="57.5" r="3" fill="#fef6aa" />
  <path fill="#1f212b" d="M49.5,61c-1.93,0-3.5-1.57-3.5-3.5s1.57-3.5,3.5-3.5s3.5,1.57,3.5,3.5S51.43,61,49.5,61z M49.5,55c-1.378,0-2.5,1.121-2.5,2.5s1.122,2.5,2.5,2.5s2.5-1.121,2.5-2.5S50.878,55,49.5,55z" />
  <path fill="#1f212b" d="M43.5,20c-0.276,0-0.5-0.224-0.5-0.5v-2c0-0.276,0.224-0.5,0.5-0.5s0.5,0.224,0.5,0.5v2C44,19.776,43.776,20,43.5,20z" />
  <path fill="#1f212b" d="M43.5,15c-0.276,0-0.5-0.224-0.5-0.5v-4c0-0.276,0.224-0.5,0.5-0.5s0.5,0.224,0.5,0.5v4C44,14.776,43.776,15,43.5,15z" />
  <path fill="#1f212b" d="M46.5,20c-0.276,0-0.5-0.224-0.5-0.5v-9c0-0.276,0.224-0.5,0.5-0.5s0.5,0.224,0.5,0.5v9C47,19.776,46.776,20,46.5,20z" />
  <path fill="#1f212b" d="M49.5,18c-0.276,0-0.5-0.224-0.5-0.5v-7c0-0.276,0.224-0.5,0.5-0.5s0.5,0.224,0.5,0.5v7C50,17.776,49.776,18,49.5,18z" />
  <path fill="#1f212b" d="M52.5,20c-0.276,0-0.5-0.224-0.5-0.5v-9c0-0.276,0.224-0.5,0.5-0.5s0.5,0.224,0.5,0.5v9C53,19.776,52.776,20,52.5,20z" />
  <path fill="#1f212b" d="M55.5,20c-0.276,0-0.5-0.224-0.5-0.5v-5c0-0.276,0.224-0.5,0.5-0.5s0.5,0.224,0.5,0.5v5C56,19.776,55.776,20,55.5,20z" />
  <path fill="#1f212b" d="M55.5,13c-0.276,0-0.5-0.224-0.5-0.5v-2c0-0.276,0.224-0.5,0.5-0.5s0.5,0.224,0.5,0.5v2C56,12.776,55.776,13,55.5,13z" />
  <path fill="#1f212b" d="M49.5,85C34.336,85,22,72.663,22,57.5S34.336,30,49.5,30c10.027,0,19.263,5.464,24.104,14.259c0.133,0.242,0.045,0.546-0.197,0.68c-0.242,0.133-0.547,0.044-0.679-0.197C68.063,36.266,59.163,31,49.5,31C34.888,31,23,42.888,23,57.5S34.888,84,49.5,84S76,72.112,76,57.5c0-0.591-0.025-1.215-0.08-1.964c-0.021-0.275,0.187-0.515,0.462-0.535c0.286-0.022,0.515,0.187,0.535,0.463C76.974,56.237,77,56.884,77,57.5C77,72.663,64.664,85,49.5,85z" />
  <path fill="#1f212b" d="M76.024,53c-0.236,0-0.445-0.167-0.491-0.407c-0.144-0.76-0.283-1.384-0.438-1.964c-0.071-0.267,0.087-0.54,0.354-0.612c0.267-0.064,0.542,0.088,0.612,0.354c0.162,0.604,0.307,1.251,0.455,2.036c0.051,0.271-0.127,0.533-0.398,0.584C76.086,52.997,76.055,53,76.024,53z" />
</svg>